a0000-p1000.ufo
<glyph name="parenleft" format="1">
  <advance width="335"/>
  <unicode hex="0028"/>
  <outline>
    <contour>
      <point x="174" y="-160" type="curve"/>
      <point x="339" y="-160" type="line"/>
      <point x="339" y="-156" type="line"/>
      <point x="237" y="-6"/>
      <point x="172" y="174"/>
      <point x="172" y="354" type="curve" smooth="yes"/>
      <point x="172" y="534"/>
      <point x="237" y="714"/>
      <point x="339" y="864" type="curve"/>
      <point x="339" y="868" type="line"/>
      <point x="174" y="868" type="line"/>
      <point x="72" y="718"/>
      <point x="21" y="536"/>
      <point x="21" y="354" type="curve" smooth="yes"/>
      <point x="21" y="172"/>
      <point x="72" y="-10"/>
    </contour>
  </outline>
</glyph>
<glyph name="hyphen" format="1">
  <advance width="418"/>
  <unicode hex="002D"/>
  <outline>
    <contour>
      <point x="40" y="211" type="line"/>
      <point x="378" y="211" type="line"/>
      <point x="378" y="349" type="line"/>
      <point x="40" y="349" type="line"/>
    </contour>
  </outline>
</glyph>
<glyph name="equal" format="1">
  <advance width="531"/>
  <unicode hex="003D"/>
  <outline>
    <contour>
      <point x="43" y="167" type="line"/>
      <point x="487" y="167" type="line"/>
      <point x="487" y="305" type="line"/>
      <point x="43" y="305" type="line"/>
    </contour>
    <contour>
      <point x="43" y="390" type="line"/>
      <point x="487" y="390" type="line"/>
      <point x="487" y="528" type="line"/>
      <point x="43" y="528" type="line"/>
    </contour>
  </outline>
</glyph>
<glyph name="L" format="1">
  <advance width="480"/>
  <unicode hex="004C"/>
  <outline>
    <contour>
      <point x="152" y="805" type="move" name="topUC"/>
    </contour>
    <contour>
      <point x="399" y="370" type="move" name="periodcentered"/>
    </contour>
    <contour>
      <point x="399" y="674" type="move" name="caronalt"/>
    </contour>
    <contour>
      <point x="259" y="0" type="move" name="bottom"/>
    </contour>
    <contour>
      <point x="50" y="0" type="line"/>
      <point x="468" y="0" type="line"/>
      <point x="468" y="162" type="line"/>
      <point x="245" y="162" type="line"/>
      <point x="245" y="740" type="line"/>
      <point x="50" y="740" type="line"/>
    </contour>
  </outline>
</glyph>
<glyph name="N" format="1">
  <advance width="689"/>
  <unicode hex="004E"/>
  <outline>
    <contour>
      <point x="332" y="805" type="move" name="topUC"/>
    </contour>
    <contour>
      <point x="347" y="0" type="move" name="bottom"/>
    </contour>
    <contour>
      <point x="50" y="0" type="line"/>
      <point x="220" y="0" type="line"/>
      <point x="220" y="402" type="line"/>
      <point x="231" y="402" type="line"/>
      <point x="266" y="327" type="line"/>
      <point x="480" y="0" type="line"/>
      <point x="639" y="0" type="line"/>
      <point x="639" y="740" type="line"/>
      <point x="469" y="740" type="line"/>
      <point x="469" y="341" type="line"/>
      <point x="458" y="341" type="line"/>
      <point x="421" y="418" type="line"/>
      <point x="210" y="740" type="line"/>
      <point x="50" y="740" type="line"/>
    </contour>
  </outline>
</glyph>
<glyph name="Q" format="1">
  <advance width="685"/>
  <unicode hex="0051"/>
  <outline>
    <contour>
      <point x="564" y="-149" type="curve"/>
      <point x="687" y="0" type="line"/>
      <point x="563" y="5"/>
      <point x="510" y="13"/>
      <point x="435" y="38" type="curve"/>
      <point x="435" y="53" type="line"/>
      <point x="588" y="103"/>
      <point x="660" y="204"/>
      <point x="660" y="369" type="curve" smooth="yes"/>
      <point x="660" y="628"/>
      <point x="559" y="750"/>
      <point x="342" y="750" type="curve" smooth="yes"/>
      <point x="126" y="750"/>
      <point x="25" y="628"/>
      <point x="25" y="369" type="curve" smooth="yes"/>
      <point x="25" y="90"/>
      <point x="153" y="-33"/>
    </contour>
    <contour>
      <point x="342" y="144" type="curve" smooth="yes"/>
      <point x="247" y="144"/>
      <point x="220" y="194"/>
      <point x="220" y="369" type="curve" smooth="yes"/>
      <point x="220" y="546"/>
      <point x="247" y="596"/>
      <point x="342" y="596" type="curve" smooth="yes"/>
      <point x="438" y="596"/>
      <point x="465" y="547"/>
      <point x="465" y="369" type="curve" smooth="yes"/>
      <point x="465" y="194"/>
      <point x="438" y="144"/>
    </contour>
  </outline>
</glyph>
<glyph name="Y" format="1">
  <advance width="680"/>
  <unicode hex="0059"/>
  <outline>
    <contour>
      <point x="341" y="805" type="move" name="topUC"/>
    </contour>
    <contour>
      <point x="242" y="0" type="line"/>
      <point x="438" y="0" type="line"/>
      <point x="438" y="254" type="line"/>
      <point x="692" y="740" type="line"/>
      <point x="476" y="740" type="line"/>
      <point x="359" y="482" type="line"/>
      <point x="346" y="433" type="line"/>
      <point x="336" y="433" type="line"/>
      <point x="324" y="482" type="line"/>
      <point x="208" y="740" type="line"/>
      <point x="-13" y="740" type="line"/>
      <point x="242" y="254" type="line"/>
    </contour>
  </outline>
</glyph>
<glyph name="l" format="1">
  <advance width="274"/>
  <unicode hex="006C"/>
  <outline>
    <contour>
      <point x="137" y="833" type="move" name="top"/>
    </contour>
    <contour>
      <point x="288" y="370" type="move" name="periodcentered"/>
    </contour>
    <contour>
      <point x="288" y="674" type="move" name="caronalt"/>
    </contour>
    <contour>
      <point x="132" y="0" type="move" name="bottom"/>
    </contour>
    <contour>
      <point x="42" y="0" type="line"/>
      <point x="232" y="0" type="line"/>
      <point x="232" y="808" type="line"/>
      <point x="42" y="808" type="line"/>
    </contour>
  </outline>
</glyph>
<glyph name="v" format="1">
  <advance width="547"/>
  <unicode hex="0076"/>
  <outline>
    <contour>
      <point x="165" y="0" type="line"/>
      <point x="382" y="0" type="line"/>
      <point x="547" y="530" type="line"/>
      <point x="547" y="540" type="line"/>
      <point x="352" y="540" type="line"/>
      <point x="288" y="241" type="line"/>
      <point x="278" y="162" type="line"/>
      <point x="268" y="162" type="line"/>
      <point x="259" y="241" type="line"/>
      <point x="195" y="540" type="line"/>
      <point x="0" y="540" type="line"/>
      <point x="0" y="530" type="line"/>
    </contour>
  </outline>
</glyph>
<glyph name="w" format="1">
  <advance width="761"/>
  <unicode hex="0077"/>
  <outline>
    <contour>
      <point x="377" y="600" type="move" name="top"/>
    </contour>
    <contour>
      <point x="110" y="0" type="line"/>
      <point x="324" y="0" type="line"/>
      <point x="369" y="276" type="line"/>
      <point x="374" y="331" type="line"/>
      <point x="387" y="331" type="line"/>
      <point x="392" y="276" type="line"/>
      <point x="437" y="0" type="line"/>
      <point x="651" y="0" type="line"/>
      <point x="747" y="536" type="line"/>
      <point x="747" y="540" type="line"/>
      <point x="576" y="540" type="line"/>
      <point x="545" y="245" type="line"/>
      <point x="539" y="190" type="line"/>
      <point x="526" y="190" type="line"/>
      <point x="519" y="245" type="line"/>
      <point x="472" y="540" type="line"/>
      <point x="289" y="540" type="line"/>
      <point x="242" y="245" type="line"/>
      <point x="235" y="190" type="line"/>
      <point x="222" y="190" type="line"/>
      <point x="216" y="245" type="line"/>
      <point x="185" y="540" type="line"/>
      <point x="14" y="540" type="line"/>
      <point x="14" y="536" type="line"/>
    </contour>
  </outline>
</glyph>
<glyph name="paragraph" format="1">
  <advance width="571"/>
  <unicode hex="00B6"/>
  <outline>
    <contour>
      <point x="338" y="0" type="line"/>
      <point x="257" y="0" type="line"/>
      <point x="257" y="266" type="line"/>
      <point x="246" y="265"/>
      <point x="245" y="265"/>
      <point x="236" y="265" type="curve" smooth="yes"/>
      <point x="105" y="265"/>
      <point x="22" y="326"/>
      <point x="22" y="505" type="curve" smooth="yes"/>
      <point x="22" y="684"/>
      <point x="103" y="745"/>
      <point x="232" y="745" type="curve" smooth="yes"/>
      <point x="261" y="745"/>
      <point x="303" y="741"/>
      <point x="338" y="735" type="curve"/>
    </contour>
    <contour>
      <point x="503" y="0" type="line"/>
      <point x="393" y="0" type="line"/>
      <point x="393" y="735" type="line"/>
      <point x="503" y="735" type="line"/>
    </contour>
  </outline>
</glyph>
<glyph name="eth" format="1">
  <advance width="556"/>
  <unicode hex="00F0"/>
  <outline>
    <contour>
      <point x="274" y="-11" type="curve" smooth="yes"/>
      <point x="439" y="-11"/>
      <point x="525" y="86"/>
      <point x="525" y="270" type="curve" smooth="yes"/>
      <point x="525" y="518"/>
      <point x="478" y="670"/>
      <point x="359" y="808" type="curve"/>
      <point x="164" y="808" type="line"/>
      <point x="235" y="740"/>
      <point x="289" y="643"/>
      <point x="324" y="539" type="curve"/>
      <point x="309" y="548"/>
      <point x="290" y="550"/>
      <point x="274" y="550" type="curve" smooth="yes"/>
      <point x="109" y="550"/>
      <point x="23" y="454"/>
      <point x="23" y="270" type="curve" smooth="yes"/>
      <point x="23" y="86"/>
      <point x="109" y="-11"/>
    </contour>
    <contour>
      <point x="274" y="132" type="curve" smooth="yes"/>
      <point x="220" y="132"/>
      <point x="213" y="148"/>
      <point x="213" y="270" type="curve" smooth="yes"/>
      <point x="213" y="391"/>
      <point x="220" y="407"/>
      <point x="274" y="407" type="curve" smooth="yes"/>
      <point x="323" y="407"/>
      <point x="335" y="391"/>
      <point x="335" y="270" type="curve" smooth="yes"/>
      <point x="335" y="152"/>
      <point x="326" y="132"/>
    </contour>
    <contour>
      <point x="163" y="595" type="line"/>
      <point x="552" y="635" type="line"/>
      <point x="552" y="748" type="line"/>
      <point x="163" y="708" type="line"/>
    </contour>
  </outline>
</glyph>
<glyph name="lslash" format="1">
  <advance width="372"/>
  <unicode hex="0142"/>
  <outline>
    <contour>
      <point x="11" y="236" type="line"/>
      <point x="365" y="429" type="line"/>
      <point x="365" y="566" type="line"/>
      <point x="11" y="373" type="line"/>
    </contour>
    <component base="l" xOffset="50"/>
  </outline>
</glyph>
<glyph name="oe" format="1">
  <advance width="827"/>
  <unicode hex="0153"/>
  <outline>
    <contour>
      <point x="590" y="-9" type="curve" smooth="yes"/>
      <point x="652" y="-9"/>
      <point x="734" y="4"/>
      <point x="786" y="22" type="curve"/>
      <point x="781" y="159" type="line"/>
      <point x="708" y="143"/>
      <point x="639" y="132"/>
      <point x="602" y="132" type="curve" smooth="yes"/>
      <point x="548" y="132"/>
      <point x="531" y="142"/>
      <point x="526" y="207" type="curve"/>
      <point x="798" y="207" type="line"/>
      <point x="802" y="229"/>
      <point x="803" y="244"/>
      <point x="803" y="285" type="curve" smooth="yes"/>
      <point x="803" y="468"/>
      <point x="738" y="549"/>
      <point x="591" y="549" type="curve" smooth="yes"/>
      <point x="526" y="549"/>
      <point x="475" y="533"/>
      <point x="436" y="501" type="curve"/>
      <point x="426" y="501" type="line"/>
      <point x="388" y="533"/>
      <point x="338" y="550"/>
      <point x="274" y="550" type="curve" smooth="yes"/>
      <point x="109" y="550"/>
      <point x="23" y="454"/>
      <point x="23" y="270" type="curve" smooth="yes"/>
      <point x="23" y="86"/>
      <point x="109" y="-11"/>
      <point x="274" y="-11" type="curve" smooth="yes"/>
      <point x="337" y="-11"/>
      <point x="388" y="5"/>
      <point x="426" y="38" type="curve"/>
      <point x="436" y="38" type="line"/>
      <point x="474" y="7"/>
      <point x="525" y="-9"/>
    </contour>
    <contour>
      <point x="274" y="132" type="curve" smooth="yes"/>
      <point x="220" y="132"/>
      <point x="213" y="150"/>
      <point x="213" y="270" type="curve" smooth="yes"/>
      <point x="213" y="390"/>
      <point x="220" y="407"/>
      <point x="274" y="407" type="curve" smooth="yes"/>
      <point x="327" y="407"/>
      <point x="335" y="390"/>
      <point x="335" y="270" type="curve" smooth="yes"/>
      <point x="335" y="150"/>
      <point x="327" y="132"/>
    </contour>
    <contour>
      <point x="526" y="320" type="line"/>
      <point x="530" y="389"/>
      <point x="546" y="410"/>
      <point x="585" y="410" type="curve" smooth="yes"/>
      <point x="622" y="410"/>
      <point x="635" y="387"/>
      <point x="637" y="320" type="curve"/>
    </contour>
  </outline>
</glyph>
<glyph name="iinvertedbreve" format="1">
  <advance width="276"/>
  <unicode hex="020B"/>
  <outline>
    <contour>
      <point x="-38" y="620" type="curve"/>
      <point x="88" y="620" type="line"/>
      <point x="90" y="673"/>
      <point x="114" y="690"/>
      <point x="150" y="690" type="curve" smooth="yes"/>
      <point x="186" y="690"/>
      <point x="209" y="672"/>
      <point x="211" y="620" type="curve"/>
      <point x="338" y="620" type="line"/>
      <point x="330" y="730"/>
      <point x="267" y="786"/>
      <point x="150" y="786" type="curve" smooth="yes"/>
      <point x="33" y="786"/>
      <point x="-31" y="730"/>
    </contour>
    <component base="dotlessi" xOffset="1"/>
  </outline>
</glyph>
<glyph name="breve" format="1">
  <advance width="423"/>
  <unicode hex="02D8"/>
  <outline>
    <contour>
      <point x="212" y="600" type="move" name="_top"/>
    </contour>
    <contour>
      <point x="212" y="610" type="curve" smooth="yes"/>
      <point x="328" y="610"/>
      <point x="391" y="666"/>
      <point x="400" y="776" type="curve"/>
      <point x="273" y="776" type="line"/>
      <point x="271" y="728"/>
      <point x="252" y="706"/>
      <point x="212" y="706" type="curve" smooth="yes"/>
      <point x="171" y="706"/>
      <point x="151" y="728"/>
      <point x="150" y="776" type="curve"/>
      <point x="24" y="776" type="line"/>
      <point x="31" y="666"/>
      <point x="95" y="610"/>
    </contour>
  </outline>
</glyph>
<glyph name="pi" format="1">
  <advance width="814"/>
  <unicode hex="03C0"/>
  <outline>
    <contour>
      <point x="230" y="-102" type="line"/>
      <point x="400" y="-102" type="line"/>
      <point x="400" y="378" type="line"/>
      <point x="490" y="378" type="line"/>
      <point x="490" y="145" type="line" smooth="yes"/>
      <point x="490" y="42"/>
      <point x="552" y="-13"/>
      <point x="667" y="-13" type="curve" smooth="yes"/>
      <point x="701" y="-13"/>
      <point x="737" y="-9"/>
      <point x="764" y="-2" type="curve"/>
      <point x="764" y="133" type="line"/>
      <point x="746" y="128"/>
      <point x="732" y="126"/>
      <point x="717" y="126" type="curve" smooth="yes"/>
      <point x="675" y="126"/>
      <point x="660" y="144"/>
      <point x="660" y="194" type="curve" smooth="yes"/>
      <point x="660" y="378" type="line"/>
      <point x="800" y="378" type="line"/>
      <point x="800" y="497" type="line"/>
      <point x="756" y="540" type="line"/>
      <point x="195" y="541" type="line" smooth="yes"/>
      <point x="68" y="541"/>
      <point x="-1" y="479"/>
      <point x="-3" y="363" type="curve"/>
      <point x="137" y="330" type="line"/>
      <point x="141" y="364"/>
      <point x="160" y="378"/>
      <point x="204" y="378" type="curve" smooth="yes"/>
      <point x="230" y="378" type="line"/>
    </contour>
  </outline>
</glyph>
<glyph name="guilsinglleft" format="1">
  <advance width="327"/>
  <unicode hex="2039"/>
  <outline>
    <contour>
      <point x="115" y="30" type="line"/>
      <point x="305" y="30" type="line"/>
      <point x="211" y="268" type="line"/>
      <point x="211" y="272" type="line"/>
      <point x="305" y="510" type="line"/>
      <point x="115" y="510" type="line"/>
      <point x="21" y="272" type="line"/>
      <point x="21" y="268" type="line"/>
    </contour>
  </outline>
</glyph>
<glyph name="guilsinglright" format="1">
  <advance width="327"/>
  <unicode hex="203A"/>
  <outline>
    <contour>
      <point x="306" y="268" type="line"/>
      <point x="306" y="272" type="line"/>
      <point x="212" y="510" type="line"/>
      <point x="22" y="510" type="line"/>
      <point x="116" y="272" type="line"/>
      <point x="116" y="268" type="line"/>
      <point x="22" y="30" type="line"/>
      <point x="212" y="30" type="line"/>
    </contour>
  </outline>
</glyph>
<glyph name="colonmonetary" format="1">
  <advance width="518"/>
  <unicode hex="20A1"/>
  <outline>
    <contour>
      <point x="205" y="-51" type="line"/>
      <point x="307" y="-51" type="line"/>
      <point x="467" y="809" type="line"/>
      <point x="365" y="809" type="line"/>
    </contour>
    <component base="C" xOffset="2"/>
  </outline>
</glyph>
<glyph name="servicemark" format="1">
  <advance width="858"/>
  <unicode hex="2120"/>
  <outline>
    <contour>
      <point x="168" y="313" type="curve" smooth="yes"/>
      <point x="259" y="313"/>
      <point x="315" y="366"/>
      <point x="315" y="450" type="curve" smooth="yes"/>
      <point x="315" y="512"/>
      <point x="288" y="550"/>
      <point x="230" y="573" type="curve" smooth="yes"/>
      <point x="183" y="591"/>
      <point x="160" y="598"/>
      <point x="160" y="621" type="curve" smooth="yes"/>
      <point x="160" y="639"/>
      <point x="172" y="648"/>
      <point x="198" y="648" type="curve" smooth="yes"/>
      <point x="217" y="648"/>
      <point x="260" y="640"/>
      <point x="296" y="630" type="curve"/>
      <point x="296" y="727" type="line"/>
      <point x="260" y="738"/>
      <point x="224" y="744"/>
      <point x="188" y="744" type="curve" smooth="yes"/>
      <point x="95" y="744"/>
      <point x="40" y="699"/>
      <point x="40" y="621" type="curve" smooth="yes"/>
      <point x="40" y="543"/>
      <point x="71" y="499"/>
      <point x="137" y="483" type="curve" smooth="yes"/>
      <point x="183" y="471"/>
      <point x="195" y="463"/>
      <point x="195" y="446" type="curve" smooth="yes"/>
      <point x="195" y="424"/>
      <point x="179" y="413"/>
      <point x="147" y="413" type="curve" smooth="yes"/>
      <point x="118" y="413"/>
      <point x="70" y="425"/>
      <point x="38" y="440" type="curve"/>
      <point x="38" y="337" type="line"/>
      <point x="88" y="320"/>
      <point x="128" y="313"/>
    </contour>
    <contour>
      <point x="358" y="320" type="line"/>
      <point x="470" y="320" type="line"/>
      <point x="470" y="576" type="line"/>
      <point x="536" y="342" type="line"/>
      <point x="634" y="342" type="line"/>
      <point x="700" y="576" type="line"/>
      <point x="700" y="320" type="line"/>
      <point x="812" y="320" type="line"/>
      <point x="812" y="740" type="line"/>
      <point x="646" y="740" type="line"/>
      <point x="585" y="527" type="line"/>
      <point x="524" y="740" type="line"/>
      <point x="358" y="740" type="line"/>
    </contour>
  </outline>
</glyph>
<glyph name="minus" format="1">
  <advance width="562"/>
  <unicode hex="2212"/>
  <outline>
    <contour>
      <point x="44" y="303" type="line"/>
      <point x="518" y="303" type="line"/>
      <point x="518" y="437" type="line"/>
      <point x="44" y="437" type="line"/>
    </contour>
  </outline>
</glyph>
<glyph name="AEacute.sc" format="1">
  <advance width="791"/>
  <outline>
    <contour>
      <point x="-3" y="0" type="line"/>
      <point x="184" y="0" type="line"/>
      <point x="219" y="104" type="line"/>
      <point x="382" y="104" type="line"/>
      <point x="387" y="0" type="line"/>
      <point x="760" y="0" type="line"/>
      <point x="760" y="145" type="line"/>
      <point x="564" y="145" type="line"/>
      <point x="558" y="218" type="line"/>
      <point x="745" y="218" type="line"/>
      <point x="745" y="358" type="line"/>
      <point x="543" y="358" type="line"/>
      <point x="537" y="432" type="line"/>
      <point x="752" y="432" type="line"/>
      <point x="752" y="577" type="line"/>
      <point x="192" y="577" type="line"/>
      <point x="-3" y="5" type="line"/>
    </contour>
    <contour>
      <point x="262" y="235" type="line"/>
      <point x="333" y="442" type="line"/>
      <point x="366" y="442" type="line"/>
      <point x="375" y="235" type="line"/>
    </contour>
    <contour>
      <point x="506" y="618" type="line"/>
      <point x="619" y="786" type="line"/>
      <point x="437" y="786" type="line"/>
      <point x="380" y="627" type="line"/>
    </contour>
  </outline>
</glyph>
<glyph name="Aringacute.sc" format="1">
  <advance width="597"/>
  <outline>
    <contour>
      <point x="-3" y="0" type="line"/>
      <point x="169" y="0" type="line"/>
      <point x="201" y="104" type="line"/>
      <point x="395" y="104" type="line"/>
      <point x="427" y="0" type="line"/>
      <point x="600" y="0" type="line"/>
      <point x="600" y="6" type="line"/>
      <point x="440" y="539" type="line"/>
      <point x="453" y="557"/>
      <point x="459" y="577"/>
      <point x="459" y="600" type="curve" smooth="yes"/>
      <point x="459" y="647"/>
      <point x="434" y="684"/>
      <point x="392" y="707" type="curve"/>
      <point x="472" y="825" type="line"/>
      <point x="290" y="825" type="line"/>
      <point x="254" y="727" type="line"/>
      <point x="181" y="714"/>
      <point x="136" y="667"/>
      <point x="136" y="600" type="curve" smooth="yes"/>
      <point x="136" y="576"/>
      <point x="143" y="556"/>
      <point x="156" y="536" type="curve"/>
      <point x="-3" y="6" type="line"/>
    </contour>
    <contour>
      <point x="297" y="549" type="curve" smooth="yes"/>
      <point x="259" y="549"/>
      <point x="233" y="569"/>
      <point x="233" y="600" type="curve" smooth="yes"/>
      <point x="233" y="632"/>
      <point x="258" y="651"/>
      <point x="297" y="651" type="curve" smooth="yes"/>
      <point x="335" y="651"/>
      <point x="361" y="632"/>
      <point x="361" y="600" type="curve" smooth="yes"/>
      <point x="361" y="570"/>
      <point x="335" y="549"/>
    </contour>
    <contour>
      <point x="228" y="225" type="line"/>
      <point x="271" y="370" type="line"/>
      <point x="291" y="461" type="line"/>
      <point x="305" y="461" type="line"/>
      <point x="325" y="370" type="line"/>
      <point x="368" y="225" type="line"/>
    </contour>
  </outline>
</glyph>
<glyph name="Dcroat.sc" format="1">
  <advance width="635"/>
  <outline>
    <contour>
      <point x="2" y="225" type="line"/>
      <point x="73" y="225" type="line"/>
      <point x="73" y="2" type="line"/>
      <point x="152" y="-5"/>
      <point x="207" y="-8"/>
      <point x="255" y="-8" type="curve" smooth="yes"/>
      <point x="514" y="-8"/>
      <point x="609" y="68"/>
      <point x="609" y="288" type="curve" smooth="yes"/>
      <point x="609" y="508"/>
      <point x="515" y="584"/>
      <point x="259" y="584" type="curve" smooth="yes"/>
      <point x="211" y="584"/>
      <point x="159" y="582"/>
      <point x="73" y="579" type="curve"/>
      <point x="73" y="360" type="line"/>
      <point x="2" y="360" type="line"/>
    </contour>
    <contour>
      <point x="321" y="137" type="curve" smooth="yes"/>
      <point x="303" y="137"/>
      <point x="285" y="137"/>
      <point x="253" y="141" type="curve"/>
      <point x="253" y="225" type="line"/>
      <point x="315" y="225" type="line"/>
      <point x="315" y="360" type="line"/>
      <point x="253" y="360" type="line"/>
      <point x="253" y="439" type="line"/>
      <point x="264" y="440"/>
      <point x="274" y="441"/>
      <point x="294" y="441" type="curve" smooth="yes"/>
      <point x="398" y="441"/>
      <point x="421" y="420"/>
      <point x="421" y="289" type="curve" smooth="yes"/>
      <point x="421" y="153"/>
      <point x="404" y="137"/>
    </contour>
  </outline>
</glyph>
<glyph name="Edotbelow.sc" format="1">
  <advance width="519"/>
  <outline>
    <contour>
      <point x="274" y="-182" type="curve" smooth="yes"/>
      <point x="327" y="-182"/>
      <point x="348" y="-162"/>
      <point x="348" y="-114" type="curve" smooth="yes"/>
      <point x="348" y="-66"/>
      <point x="327" y="-47"/>
      <point x="274" y="-47" type="curve" smooth="yes"/>
      <point x="222" y="-47"/>
      <point x="201" y="-66"/>
      <point x="201" y="-114" type="curve" smooth="yes"/>
      <point x="201" y="-163"/>
      <point x="222" y="-182"/>
    </contour>
    <contour>
      <point x="48" y="0" type="line"/>
      <point x="492" y="0" type="line"/>
      <point x="492" y="145" type="line"/>
      <point x="231" y="145" type="line"/>
      <point x="231" y="218" type="line"/>
      <point x="456" y="218" type="line"/>
      <point x="456" y="358" type="line"/>
      <point x="231" y="358" type="line"/>
      <point x="231" y="432" type="line"/>
      <point x="484" y="432" type="line"/>
      <point x="484" y="577" type="line"/>
      <point x="48" y="577" type="line"/>
    </contour>
  </outline>
</glyph>
<glyph name="Icircumflex.sc" format="1">
  <advance width="279"/>
  <outline>
    <contour>
      <point x="48" y="0" type="line"/>
      <point x="231" y="0" type="line"/>
      <point x="231" y="577" type="line"/>
      <point x="48" y="577" type="line"/>
    </contour>
    <contour>
      <point x="-19" y="608" type="line"/>
      <point x="140" y="664" type="line"/>
      <point x="300" y="608" type="line"/>
      <point x="300" y="721" type="line"/>
      <point x="141" y="777" type="line"/>
      <point x="-19" y="721" type="line"/>
    </contour>
  </outline>
</glyph>
<glyph name="Idblgrave.sc" format="1">
  <advance width="279"/>
  <outline>
    <contour>
      <point x="48" y="0" type="line"/>
      <point x="231" y="0" type="line"/>
      <point x="231" y="577" type="line"/>
      <point x="48" y="577" type="line"/>
    </contour>
    <contour>
      <point x="105" y="625" type="line"/>
      <point x="49" y="786" type="line"/>
      <point x="-101" y="786" type="line"/>
      <point x="12" y="618" type="line"/>
    </contour>
    <contour>
      <point x="289" y="625" type="line"/>
      <point x="232" y="786" type="line"/>
      <point x="83" y="786" type="line"/>
      <point x="196" y="618" type="line"/>
    </contour>
  </outline>
</glyph>
<glyph name="Idieresis.sc" format="1">
  <advance width="279"/>
  <outline>
    <contour>
      <point x="48" y="0" type="line"/>
      <point x="231" y="0" type="line"/>
      <point x="231" y="577" type="line"/>
      <point x="48" y="577" type="line"/>
    </contour>
    <contour>
      <point x="17" y="619" type="curve" smooth="yes"/>
      <point x="84" y="619"/>
      <point x="113" y="646"/>
      <point x="113" y="711" type="curve" smooth="yes"/>
      <point x="113" y="775"/>
      <point x="84" y="802"/>
      <point x="17" y="802" type="curve" smooth="yes"/>
      <point x="-51" y="802"/>
      <point x="-78" y="775"/>
      <point x="-78" y="711" type="curve" smooth="yes"/>
      <point x="-78" y="647"/>
      <point x="-51" y="619"/>
    </contour>
    <contour>
      <point x="261" y="619" type="curve" smooth="yes"/>
      <point x="328" y="619"/>
      <point x="358" y="646"/>
      <point x="358" y="711" type="curve" smooth="yes"/>
      <point x="358" y="775"/>
      <point x="328" y="802"/>
      <point x="261" y="802" type="curve" smooth="yes"/>
      <point x="193" y="802"/>
      <point x="166" y="775"/>
      <point x="166" y="711" type="curve" smooth="yes"/>
      <point x="166" y="647"/>
      <point x="193" y="619"/>
    </contour>
  </outline>
</glyph>
<glyph name="Imacron.sc" format="1">
  <advance width="279"/>
  <outline>
    <contour>
      <point x="48" y="0" type="line"/>
      <point x="231" y="0" type="line"/>
      <point x="231" y="577" type="line"/>
      <point x="48" y="577" type="line"/>
    </contour>
    <contour>
      <point x="-20" y="651" type="line"/>
      <point x="300" y="651" type="line"/>
      <point x="300" y="766" type="line"/>
      <point x="-20" y="766" type="line"/>
    </contour>
  </outline>
</glyph>
<glyph name="Jcircumflex.sc" format="1">
  <advance width="281"/>
  <outline>
    <contour>
      <point x="99" y="-174" type="line"/>
      <point x="200" y="-50"/>
      <point x="234" y="28"/>
      <point x="234" y="141" type="curve" smooth="yes"/>
      <point x="234" y="577" type="line"/>
      <point x="50" y="577" type="line"/>
      <point x="50" y="158" type="line" smooth="yes"/>
      <point x="50" y="45"/>
      <point x="35" y="-24"/>
      <point x="-16" y="-125" type="curve"/>
    </contour>
    <contour>
      <point x="-13" y="608" type="line"/>
      <point x="146" y="664" type="line"/>
      <point x="305" y="608" type="line"/>
      <point x="305" y="721" type="line"/>
      <point x="147" y="777" type="line"/>
      <point x="-13" y="721" type="line"/>
    </contour>
  </outline>
</glyph>
<glyph name="K.sc" format="1">
  <advance width="596"/>
  <outline>
    <contour>
      <point x="276" y="0" type="move" name="bottom"/>
    </contour>
    <contour>
      <point x="48" y="0" type="line"/>
      <point x="231" y="0" type="line"/>
      <point x="231" y="220" type="line"/>
      <point x="287" y="220" type="line"/>
      <point x="401" y="0" type="line"/>
      <point x="604" y="0" type="line"/>
      <point x="463" y="268" type="line"/>
      <point x="395" y="291" type="line"/>
      <point x="395" y="297" type="line"/>
      <point x="462" y="320" type="line"/>
      <point x="585" y="577" type="line"/>
      <point x="385" y="577" type="line"/>
      <point x="294" y="370" type="line"/>
      <point x="231" y="370" type="line"/>
      <point x="231" y="577" type="line"/>
      <point x="48" y="577" type="line"/>
    </contour>
  </outline>
</glyph>
<glyph name="Ldot.sc" format="1">
  <advance width="472"/>
  <outline>
    <contour>
      <point x="48" y="0" type="line"/>
      <point x="437" y="0" type="line"/>
      <point x="437" y="150" type="line"/>
      <point x="231" y="150" type="line"/>
      <point x="231" y="577" type="line"/>
      <point x="48" y="577" type="line"/>
    </contour>
    <contour>
      <point x="374" y="199" type="curve" smooth="yes"/>
      <point x="441" y="199"/>
      <point x="470" y="226"/>
      <point x="470" y="291" type="curve" smooth="yes"/>
      <point x="470" y="356"/>
      <point x="441" y="382"/>
      <point x="374" y="382" type="curve" smooth="yes"/>
      <point x="305" y="382"/>
      <point x="279" y="355"/>
      <point x="279" y="291" type="curve" smooth="yes"/>
      <point x="279" y="227"/>
      <point x="305" y="199"/>
    </contour>
  </outline>
</glyph>
<glyph name="Ncommaaccent.sc" format="1">
  <advance width="639"/>
  <outline>
    <contour>
      <point x="48" y="0" type="line"/>
      <point x="210" y="0" type="line"/>
      <point x="210" y="288" type="line"/>
      <point x="220" y="287" type="line"/>
      <point x="262" y="227" type="line"/>
      <point x="445" y="0" type="line"/>
      <point x="591" y="0" type="line"/>
      <point x="591" y="577" type="line"/>
      <point x="429" y="577" type="line"/>
      <point x="429" y="293" type="line"/>
      <point x="419" y="293" type="line"/>
      <point x="376" y="355" type="line"/>
      <point x="195" y="577" type="line"/>
      <point x="48" y="577" type="line"/>
    </contour>
    <contour>
      <point x="199" y="-172" type="line"/>
      <point x="331" y="-172" type="line"/>
      <point x="417" y="-55" type="line"/>
      <point x="235" y="-55" type="line"/>
    </contour>
  </outline>
</glyph>
<glyph name="Odieresis.sc" format="1">
  <advance width="637"/>
  <outline>
    <contour>
      <point x="318" y="-8" type="curve" smooth="yes"/>
      <point x="517" y="-8"/>
      <point x="612" y="86"/>
      <point x="612" y="288" type="curve" smooth="yes"/>
      <point x="612" y="490"/>
      <point x="517" y="585"/>
      <point x="318" y="585" type="curve" smooth="yes"/>
      <point x="122" y="585"/>
      <point x="25" y="487"/>
      <point x="25" y="288" type="curve" smooth="yes"/>
      <point x="25" y="89"/>
      <point x="122" y="-8"/>
    </contour>
    <contour>
      <point x="318" y="140" type="curve" smooth="yes"/>
      <point x="238" y="140"/>
      <point x="213" y="173"/>
      <point x="213" y="288" type="curve" smooth="yes"/>
      <point x="213" y="406"/>
      <point x="238" y="437"/>
      <point x="318" y="437" type="curve" smooth="yes"/>
      <point x="401" y="437"/>
      <point x="424" y="409"/>
      <point x="424" y="288" type="curve" smooth="yes"/>
      <point x="424" y="170"/>
      <point x="399" y="140"/>
    </contour>
    <contour>
      <point x="195" y="619" type="curve" smooth="yes"/>
      <point x="262" y="619"/>
      <point x="291" y="646"/>
      <point x="291" y="711" type="curve" smooth="yes"/>
      <point x="291" y="775"/>
      <point x="262" y="802"/>
      <point x="195" y="802" type="curve" smooth="yes"/>
      <point x="127" y="802"/>
      <point x="100" y="775"/>
      <point x="100" y="711" type="curve" smooth="yes"/>
      <point x="100" y="647"/>
      <point x="127" y="619"/>
    </contour>
    <contour>
      <point x="439" y="619" type="curve" smooth="yes"/>
      <point x="506" y="619"/>
      <point x="535" y="646"/>
      <point x="535" y="711" type="curve" smooth="yes"/>
      <point x="535" y="775"/>
      <point x="506" y="802"/>
      <point x="439" y="802" type="curve" smooth="yes"/>
      <point x="371" y="802"/>
      <point x="344" y="775"/>
      <point x="344" y="711" type="curve" smooth="yes"/>
      <point x="344" y="647"/>
      <point x="371" y="619"/>
    </contour>
  </outline>
</glyph>
<glyph name="Q.sc" format="1">
  <advance width="636"/>
  <outline>
    <contour>
      <point x="524" y="-129" type="curve"/>
      <point x="633" y="10" type="line"/>
      <point x="524" y="13"/>
      <point x="480" y="18"/>
      <point x="404" y="39" type="curve"/>
      <point x="404" y="53" type="line"/>
      <point x="544" y="96"/>
      <point x="611" y="172"/>
      <point x="611" y="288" type="curve" smooth="yes"/>
      <point x="611" y="489"/>
      <point x="517" y="585"/>
      <point x="318" y="585" type="curve" smooth="yes"/>
      <point x="120" y="585"/>
      <point x="25" y="489"/>
      <point x="25" y="288" type="curve" smooth="yes"/>
      <point x="25" y="81"/>
      <point x="142" y="-24"/>
    </contour>
    <contour>
      <point x="318" y="136" type="curve" smooth="yes"/>
      <point x="232" y="136"/>
      <point x="208" y="165"/>
      <point x="208" y="288" type="curve" smooth="yes"/>
      <point x="208" y="413"/>
      <point x="232" y="442"/>
      <point x="318" y="442" type="curve" smooth="yes"/>
      <point x="404" y="442"/>
      <point x="428" y="415"/>
      <point x="428" y="288" type="curve" smooth="yes"/>
      <point x="428" y="164"/>
      <point x="404" y="136"/>
    </contour>
  </outline>
</glyph>
<glyph name=".notdef" format="1">
  <advance width="686"/>
  <outline>
    <contour>
      <point x="59" y="-220" type="line"/>
      <point x="626" y="-220" type="line"/>
      <point x="626" y="1030" type="line"/>
      <point x="59" y="1030" type="line"/>
    </contour>
    <contour>
      <point x="211" y="-78" type="line"/>
      <point x="211" y="889" type="line"/>
      <point x="473" y="889" type="line"/>
      <point x="473" y="-78" type="line"/>
    </contour>
  </outline>
</glyph>
<glyph name="braceleft.sc" format="1">
  <advance width="309"/>
  <outline>
    <contour>
      <point x="23" y="211" type="line"/>
      <point x="65" y="211"/>
      <point x="77" y="192"/>
      <point x="77" y="149" type="curve" smooth="yes"/>
      <point x="77" y="-23" type="line" smooth="yes"/>
      <point x="77" y="-97"/>
      <point x="108" y="-127"/>
      <point x="180" y="-127" type="curve" smooth="yes"/>
      <point x="203" y="-127"/>
      <point x="272" y="-125"/>
      <point x="283" y="-123" type="curve"/>
      <point x="283" y="-17" type="line"/>
      <point x="256" y="-17" type="line" smooth="yes"/>
      <point x="228" y="-17"/>
      <point x="216" y="-6"/>
      <point x="216" y="13" type="curve" smooth="yes"/>
      <point x="216" y="186" type="line" smooth="yes"/>
      <point x="216" y="235"/>
      <point x="185" y="271"/>
      <point x="140" y="275" type="curve"/>
      <point x="185" y="281"/>
      <point x="216" y="318"/>
      <point x="216" y="367" type="curve" smooth="yes"/>
      <point x="216" y="537" type="line" smooth="yes"/>
      <point x="216" y="557"/>
      <point x="228" y="567"/>
      <point x="256" y="567" type="curve" smooth="yes"/>
      <point x="283" y="567" type="line"/>
      <point x="283" y="673" type="line"/>
      <point x="272" y="675"/>
      <point x="203" y="677"/>
      <point x="180" y="677" type="curve" smooth="yes"/>
      <point x="108" y="677"/>
      <point x="77" y="647"/>
      <point x="77" y="574" type="curve" smooth="yes"/>
      <point x="77" y="404" type="line" smooth="yes"/>
      <point x="77" y="361"/>
      <point x="65" y="341"/>
      <point x="23" y="341" type="curve"/>
    </contour>
  </outline>
</glyph>
<glyph name="cent.tab" format="1">
  <advance width="600"/>
  <outline>
    <contour>
      <point x="305" y="-120" type="line"/>
      <point x="429" y="-120" type="line"/>
      <point x="429" y="-7" type="line"/>
      <point x="459" y="-5"/>
      <point x="488" y="0"/>
      <point x="510" y="8" type="curve"/>
      <point x="510" y="153" type="line"/>
      <point x="476" y="145"/>
      <point x="444" y="142"/>
      <point x="408" y="142" type="curve" smooth="yes"/>
      <point x="313" y="142"/>
      <point x="275" y="179"/>
      <point x="275" y="272" type="curve" smooth="yes"/>
      <point x="275" y="364"/>
      <point x="312" y="397"/>
      <point x="410" y="397" type="curve" smooth="yes"/>
      <point x="438" y="397"/>
      <point x="473" y="393"/>
      <point x="510" y="386" type="curve"/>
      <point x="510" y="532" type="line"/>
      <point x="487" y="539"/>
      <point x="459" y="545"/>
      <point x="429" y="547" type="curve"/>
      <point x="429" y="660" type="line"/>
      <point x="305" y="660" type="line"/>
      <point x="305" y="543" type="line"/>
      <point x="148" y="522"/>
      <point x="70" y="436"/>
      <point x="70" y="270" type="curve" smooth="yes"/>
      <point x="70" y="103"/>
      <point x="148" y="17"/>
      <point x="305" y="-3" type="curve"/>
    </contour>
  </outline>
</glyph>
<glyph name="currency.ss01" format="1">
  <advance width="607"/>
  <outline>
    <contour>
      <point x="153" y="-150" type="line"/>
      <point x="293" y="-150" type="line"/>
      <point x="293" y="84" type="line"/>
      <point x="153" y="82" type="line"/>
    </contour>
    <contour>
      <point x="153" y="677" type="line"/>
      <point x="293" y="681" type="line"/>
      <point x="293" y="890" type="line"/>
      <point x="153" y="890" type="line"/>
    </contour>
    <contour>
      <point x="335" y="-150" type="line"/>
      <point x="474" y="-150" type="line"/>
      <point x="474" y="84" type="line"/>
      <point x="335" y="82" type="line"/>
    </contour>
    <contour>
      <point x="335" y="677" type="line"/>
      <point x="474" y="681" type="line"/>
      <point x="474" y="890" type="line"/>
      <point x="335" y="890" type="line"/>
    </contour>
    <component base="B" xOffset="9"/>
  </outline>
</glyph>
<glyph name="dieresis.cap" format="1">
  <advance width="537"/>
  <outline>
    <contour>
      <point x="268" y="805" type="move" name="_topUC"/>
    </contour>
    <contour>
      <point x="135" y="798" type="curve" smooth="yes"/>
      <point x="206" y="798"/>
      <point x="238" y="827"/>
      <point x="238" y="898" type="curve" smooth="yes"/>
      <point x="238" y="968"/>
      <point x="206" y="997"/>
      <point x="135" y="997" type="curve" smooth="yes"/>
      <point x="62" y="997"/>
      <point x="33" y="968"/>
      <point x="33" y="898" type="curve" smooth="yes"/>
      <point x="33" y="828"/>
      <point x="62" y="798"/>
    </contour>
    <contour>
      <point x="399" y="798" type="curve" smooth="yes"/>
      <point x="470" y="798"/>
      <point x="502" y="827"/>
      <point x="502" y="898" type="curve" smooth="yes"/>
      <point x="502" y="968"/>
      <point x="470" y="997"/>
      <point x="399" y="997" type="curve" smooth="yes"/>
      <point x="326" y="997"/>
      <point x="297" y="968"/>
      <point x="297" y="898" type="curve" smooth="yes"/>
      <point x="297" y="828"/>
      <point x="326" y="798"/>
    </contour>
  </outline>
</glyph>
<glyph name="eight.tf" format="1">
  <advance width="600"/>
  <outline>
    <contour>
      <point x="300" y="-3" type="curve" smooth="yes"/>
      <point x="463" y="-3"/>
      <point x="559" y="79"/>
      <point x="559" y="216" type="curve" smooth="yes"/>
      <point x="559" y="315"/>
      <point x="516" y="365"/>
      <point x="461" y="396" type="curve"/>
      <point x="523" y="436"/>
      <point x="541" y="478"/>
      <point x="541" y="549" type="curve" smooth="yes"/>
      <point x="541" y="669"/>
      <point x="445" y="749"/>
      <point x="300" y="749" type="curve" smooth="yes"/>
      <point x="155" y="749"/>
      <point x="59" y="669"/>
      <point x="59" y="549" type="curve" smooth="yes"/>
      <point x="59" y="455"/>
      <point x="95" y="404"/>
      <point x="143" y="370" type="curve"/>
      <point x="73" y="327"/>
      <point x="41" y="266"/>
      <point x="41" y="182" type="curve" smooth="yes"/>
      <point x="41" y="66"/>
      <point x="137" y="-3"/>
    </contour>
    <contour>
      <point x="300" y="117" type="curve" smooth="yes"/>
      <point x="246" y="117"/>
      <point x="218" y="149"/>
      <point x="218" y="210" type="curve" smooth="yes"/>
      <point x="218" y="251"/>
      <point x="241" y="283"/>
      <point x="276" y="309" type="curve"/>
      <point x="335" y="286"/>
      <point x="382" y="259"/>
      <point x="382" y="196" type="curve" smooth="yes"/>
      <point x="382" y="144"/>
      <point x="354" y="117"/>
    </contour>
    <contour>
      <point x="300" y="623" type="curve" smooth="yes"/>
      <point x="347" y="623"/>
      <point x="371" y="598"/>
      <point x="371" y="548" type="curve" smooth="yes"/>
      <point x="371" y="503"/>
      <point x="358" y="471"/>
      <point x="327" y="445" type="curve"/>
      <point x="271" y="463"/>
      <point x="229" y="484"/>
      <point x="229" y="536" type="curve" smooth="yes"/>
      <point x="229" y="592"/>
      <point x="255" y="623"/>
    </contour>
  </outline>
</glyph>
<glyph name="eight.tosf" format="1">
  <advance width="600"/>
  <outline>
    <contour>
      <point x="300" y="-3" type="curve" smooth="yes"/>
      <point x="463" y="-3"/>
      <point x="559" y="72"/>
      <point x="559" y="198" type="curve" smooth="yes"/>
      <point x="559" y="289"/>
      <point x="516" y="336"/>
      <point x="462" y="364" type="curve"/>
      <point x="523" y="402"/>
      <point x="541" y="439"/>
      <point x="541" y="505" type="curve" smooth="yes"/>
      <point x="541" y="615"/>
      <point x="445" y="689"/>
      <point x="300" y="689" type="curve" smooth="yes"/>
      <point x="155" y="689"/>
      <point x="59" y="615"/>
      <point x="59" y="505" type="curve" smooth="yes"/>
      <point x="59" y="418"/>
      <point x="95" y="371"/>
      <point x="143" y="340" type="curve"/>
      <point x="73" y="300"/>
      <point x="41" y="245"/>
      <point x="41" y="167" type="curve" smooth="yes"/>
      <point x="41" y="60"/>
      <point x="137" y="-3"/>
    </contour>
    <contour>
      <point x="300" y="117" type="curve" smooth="yes"/>
      <point x="249" y="117"/>
      <point x="223" y="142"/>
      <point x="223" y="193" type="curve" smooth="yes"/>
      <point x="223" y="229"/>
      <point x="244" y="259"/>
      <point x="277" y="283" type="curve"/>
      <point x="332" y="262"/>
      <point x="377" y="237"/>
      <point x="377" y="180" type="curve" smooth="yes"/>
      <point x="377" y="138"/>
      <point x="351" y="117"/>
    </contour>
    <contour>
      <point x="300" y="564" type="curve" smooth="yes"/>
      <point x="344" y="564"/>
      <point x="366" y="544"/>
      <point x="366" y="504" type="curve" smooth="yes"/>
      <point x="366" y="463"/>
      <point x="354" y="435"/>
      <point x="325" y="411" type="curve"/>
      <point x="274" y="427"/>
      <point x="234" y="446"/>
      <point x="234" y="493" type="curve" smooth="yes"/>
      <point x="234" y="539"/>
      <point x="258" y="564"/>
    </contour>
  </outline>
</glyph>
<glyph name="five.osf" format="1">
  <advance width="489"/>
  <outline>
    <contour>
      <point x="177" y="-168" type="curve" smooth="yes"/>
      <point x="364" y="-168"/>
      <point x="475" y="-79"/>
      <point x="475" y="71" type="curve" smooth="yes"/>
      <point x="475" y="230"/>
      <point x="388" y="298"/>
      <point x="186" y="298" type="curve"/>
      <point x="195" y="238" type="line"/>
      <point x="212" y="513" type="line"/>
      <point x="145" y="423" type="line"/>
      <point x="440" y="423" type="line"/>
      <point x="440" y="583" type="line"/>
      <point x="58" y="583" type="line"/>
      <point x="32" y="168" type="line"/>
      <point x="36" y="164" type="line"/>
      <point x="108" y="164" type="line" smooth="yes"/>
      <point x="243" y="164"/>
      <point x="280" y="144"/>
      <point x="280" y="71" type="curve" smooth="yes"/>
      <point x="280" y="17"/>
      <point x="242" y="-8"/>
      <point x="161" y="-8" type="curve" smooth="yes"/>
      <point x="132" y="-8"/>
      <point x="101" y="-4"/>
      <point x="67" y="4" type="curve"/>
      <point x="28" y="4" type="line"/>
      <point x="28" y="-153" type="line"/>
      <point x="93" y="-164"/>
      <point x="138" y="-168"/>
    </contour>
  </outline>
</glyph>
<glyph name="five.tosf" format="1">
  <advance width="600"/>
  <outline>
    <contour>
      <point x="227" y="-168" type="curve" smooth="yes"/>
      <point x="427" y="-168"/>
      <point x="545" y="-79"/>
      <point x="545" y="71" type="curve" smooth="yes"/>
      <point x="545" y="226"/>
      <point x="455" y="295"/>
      <point x="245" y="298" type="curve"/>
      <point x="253" y="423" type="line"/>
      <point x="508" y="423" type="line"/>
      <point x="508" y="583" type="line"/>
      <point x="102" y="583" type="line"/>
      <point x="73" y="168" type="line"/>
      <point x="78" y="164" type="line"/>
      <point x="155" y="164" type="line" smooth="yes"/>
      <point x="302" y="164"/>
      <point x="344" y="144"/>
      <point x="344" y="71" type="curve" smooth="yes"/>
      <point x="344" y="17"/>
      <point x="301" y="-8"/>
      <point x="211" y="-8" type="curve" smooth="yes"/>
      <point x="180" y="-8"/>
      <point x="146" y="-4"/>
      <point x="109" y="4" type="curve"/>
      <point x="68" y="4" type="line"/>
      <point x="68" y="-153" type="line"/>
      <point x="137" y="-164"/>
      <point x="185" y="-168"/>
    </contour>
  </outline>
</glyph>
<glyph name="less.tab" format="1">
  <advance width="600"/>
  <outline>
    <contour>
      <point x="542" y="90" type="line"/>
      <point x="542" y="237" type="line"/>
      <point x="232" y="363" type="line"/>
      <point x="542" y="489" type="line"/>
      <point x="542" y="636" type="line"/>
      <point x="35" y="429" type="line"/>
      <point x="35" y="297" type="line"/>
    </contour>
  </outline>
</glyph>
<glyph name="macron.cap" format="1">
  <advance width="421"/>
  <outline>
    <contour>
      <point x="211" y="805" type="move" name="_topUC"/>
    </contour>
    <contour>
      <point x="39" y="836" type="line"/>
      <point x="382" y="836" type="line"/>
      <point x="382" y="960" type="line"/>
      <point x="39" y="960" type="line"/>
    </contour>
  </outline>
</glyph>
<glyph name="multiply.tab" format="1">
  <advance width="600"/>
  <outline>
    <contour>
      <point x="149" y="140" type="line"/>
      <point x="300" y="277" type="line"/>
      <point x="452" y="140" type="line"/>
      <point x="551" y="235" type="line"/>
      <point x="402" y="370" type="line"/>
      <point x="551" y="505" type="line"/>
      <point x="451" y="600" type="line"/>
      <point x="300" y="463" type="line"/>
      <point x="149" y="600" type="line"/>
      <point x="49" y="505" type="line"/>
      <point x="198" y="370" type="line"/>
      <point x="49" y="235" type="line"/>
    </contour>
  </outline>
</glyph>
<glyph name="nine.tf" format="1">
  <advance width="600"/>
  <outline>
    <contour>
      <point x="293" y="750" type="curve" smooth="yes"/>
      <point x="126" y="750"/>
      <point x="24" y="650"/>
      <point x="24" y="487" type="curve" smooth="yes"/>
      <point x="24" y="350"/>
      <point x="111" y="262"/>
      <point x="245" y="262" type="curve" smooth="yes"/>
      <point x="298" y="262"/>
      <point x="343" y="277"/>
      <point x="375" y="305" type="curve"/>
      <point x="359" y="187"/>
      <point x="309" y="144"/>
      <point x="202" y="144" type="curve" smooth="yes"/>
      <point x="171" y="144"/>
      <point x="135" y="149"/>
      <point x="86" y="159" type="curve"/>
      <point x="63" y="10" type="line"/>
      <point x="117" y="-3"/>
      <point x="165" y="-10"/>
      <point x="209" y="-10" type="curve" smooth="yes"/>
      <point x="445" y="-10"/>
      <point x="565" y="129"/>
      <point x="565" y="404" type="curve" smooth="yes"/>
      <point x="565" y="625"/>
      <point x="466" y="750"/>
    </contour>
    <contour>
      <point x="293" y="400" type="curve" smooth="yes"/>
      <point x="237" y="400"/>
      <point x="214" y="427"/>
      <point x="214" y="493" type="curve" smooth="yes"/>
      <point x="214" y="561"/>
      <point x="238" y="591"/>
      <point x="293" y="591" type="curve" smooth="yes"/>
      <point x="349" y="591"/>
      <point x="375" y="545"/>
      <point x="379" y="436" type="curve"/>
      <point x="361" y="415"/>
      <point x="326" y="400"/>
    </contour>
  </outline>
</glyph>
<glyph name="numbersign.tab" format="1">
  <advance width="600"/>
  <outline>
    <contour>
      <point x="308" y="0" type="line"/>
      <point x="440" y="0" type="line"/>
      <point x="457" y="194" type="line"/>
      <point x="553" y="194" type="line"/>
      <point x="553" y="309" type="line"/>
      <point x="468" y="309" type="line"/>
      <point x="479" y="433" type="line"/>
      <point x="553" y="433" type="line"/>
      <point x="553" y="547" type="line"/>
      <point x="489" y="547" type="line"/>
      <point x="507" y="740" type="line"/>
      <point x="375" y="740" type="line"/>
      <point x="357" y="547" type="line"/>
      <point x="274" y="547" type="line"/>
      <point x="292" y="740" type="line"/>
      <point x="160" y="740" type="line"/>
      <point x="142" y="547" type="line"/>
      <point x="48" y="547" type="line"/>
      <point x="48" y="433" type="line"/>
      <point x="132" y="433" type="line"/>
      <point x="121" y="309" type="line"/>
      <point x="48" y="309" type="line"/>
      <point x="48" y="194" type="line"/>
      <point x="111" y="194" type="line"/>
      <point x="94" y="0" type="line"/>
      <point x="226" y="0" type="line"/>
      <point x="243" y="194" type="line"/>
      <point x="325" y="194" type="line"/>
    </contour>
    <contour>
      <point x="264" y="433" type="line"/>
      <point x="347" y="433" type="line"/>
      <point x="336" y="309" type="line"/>
      <point x="253" y="309" type="line"/>
    </contour>
  </outline>
</glyph>
<glyph name="one.osf" format="1">
  <advance width="408"/>
  <outline>
    <contour>
      <point x="159" y="0" type="line"/>
      <point x="354" y="0" type="line"/>
      <point x="354" y="583" type="line"/>
      <point x="207" y="583" type="line"/>
      <point x="6" y="471" type="line"/>
      <point x="1" y="445" type="line"/>
      <point x="28" y="358" type="line"/>
      <point x="52" y="358" type="line"/>
      <point x="155" y="377" type="line"/>
      <point x="159" y="377" type="line"/>
    </contour>
  </outline>
</glyph>
<glyph name="one.tf" format="1">
  <advance width="600"/>
  <outline>
    <contour>
      <point x="266" y="0" type="line"/>
      <point x="472" y="0" type="line"/>
      <point x="472" y="740" type="line"/>
      <point x="318" y="740" type="line"/>
      <point x="69" y="608" type="line"/>
      <point x="63" y="582" type="line"/>
      <point x="95" y="495" type="line"/>
      <point x="120" y="495" type="line"/>
      <point x="261" y="534" type="line"/>
      <point x="266" y="534" type="line"/>
    </contour>
  </outline>
</glyph>
<glyph name="plus.tab" format="1">
  <advance width="600"/>
  <outline>
    <contour>
      <point x="42" y="303" type="line"/>
      <point x="230" y="303" type="line"/>
      <point x="230" y="148" type="line"/>
      <point x="370" y="148" type="line"/>
      <point x="370" y="303" type="line"/>
      <point x="558" y="303" type="line"/>
      <point x="558" y="437" type="line"/>
      <point x="370" y="437" type="line"/>
      <point x="370" y="592" type="line"/>
      <point x="230" y="592" type="line"/>
      <point x="230" y="437" type="line"/>
      <point x="42" y="437" type="line"/>
    </contour>
  </outline>
</glyph>
<glyph name="quotedbl.tab" format="1">
  <advance width="300"/>
  <outline>
    <contour>
      <point x="-42" y="808" type="line"/>
      <point x="-42" y="480" type="line"/>
      <point x="65" y="480" type="line"/>
      <point x="117" y="804" type="line"/>
      <point x="117" y="808" type="line"/>
    </contour>
    <contour>
      <point x="207" y="808" type="line"/>
      <point x="207" y="480" type="line"/>
      <point x="314" y="480" type="line"/>
      <point x="365" y="804" type="line"/>
      <point x="365" y="808" type="line"/>
    </contour>
  </outline>
</glyph>
<glyph name="semicolon.tab" format="1">
  <advance width="300"/>
  <outline>
    <contour>
      <point x="162" y="-155" type="line"/>
      <point x="253" y="185" type="line"/>
      <point x="63" y="185" type="line"/>
      <point x="22" y="-145" type="line"/>
    </contour>
    <contour>
      <point x="154" y="351" type="curve" smooth="yes"/>
      <point x="227" y="351"/>
      <point x="256" y="381"/>
      <point x="256" y="451" type="curve" smooth="yes"/>
      <point x="256" y="521"/>
      <point x="226" y="550"/>
      <point x="154" y="550" type="curve" smooth="yes"/>
      <point x="82" y="550"/>
      <point x="53" y="521"/>
      <point x="53" y="451" type="curve" smooth="yes"/>
      <point x="53" y="380"/>
      <point x="83" y="351"/>
    </contour>
  </outline>
</glyph>
